<?xml version="1.0" encoding="UTF-8"?>
<svg xmlns="http://www.w3.org/2000/svg" xmlns:xlink="http://www.w3.org/1999/xlink" version="1.1" id="Layer_2_00000070802249005863294750000016329302625290236607_" x="0px" y="0px" viewBox="0 0 214.6 161.2" style="enable-background:new 0 0 214.6 161.2;" xml:space="preserve">
<style type="text/css">
	.st0{fill:#404047;}
	.st1{enable-background:new    ;}
	.st2{fill:#E9B21D;}
	.st3{fill:#FFFFFF;}
	#sukset_ristissa {
		position: absolute;
		inset: 0;
		margin: auto;
		width: 50vmin;
		fill: #e9b21d;
		fill: #fff;
		animation: rotozoom 1.75s ease-out forwards;
		transform-origin: 107.3px 51.5px;
		overflow: hidden;
	}
	@keyframes rotozoom {
		0% {
			opacity: 0;
			transform: rotate(135deg) scale(20);
		}
		100% {
			opacity: 1;
		}
	}
</style>
<g id="Layer_1-2">
	<rect y="0" class="st0" width="214.6" height="161.2"></rect>
	<g class="st1">
		<path class="st2" d="M34.3,100.9V74.6H45c1.4,0,2.7,0.4,3.9,1.1c1.2,0.7,2.1,1.7,2.8,2.9c0.7,1.2,1.1,2.6,1.1,4.1    c0,1.5-0.4,2.9-1.1,4.1c-0.7,1.2-1.6,2.2-2.8,3c-1.2,0.7-2.5,1.1-3.9,1.1h-6.7v10.1H34.3z M38.3,86.9h6.6c0.7,0,1.3-0.2,1.8-0.6    c0.6-0.4,1-0.9,1.3-1.5s0.5-1.3,0.5-2.1c0-0.8-0.2-1.5-0.5-2.1s-0.8-1.1-1.3-1.5s-1.2-0.6-1.8-0.6h-6.6V86.9z"></path>
	</g>
	<g class="st1">
		<path class="st2" d="M79,100.9l-6.1-10.6c0.3-0.1,0.6-0.3,0.9-0.5c1.3-0.7,2.3-1.7,3-3c0.8-1.2,1.1-2.6,1.1-4c0-1.6-0.4-3-1.1-4.3    c-0.8-1.3-1.8-2.3-3-3c-1.3-0.7-2.7-1.1-4.2-1.1H58.5v26.3h4.1V91h6l5.6,9.9L79,100.9z M62.5,78.5H69c0.9,0,1.8,0.2,2.5,0.6    c0.7,0.4,1.3,0.9,1.7,1.6c0.4,0.7,0.6,1.4,0.6,2.3c0,0.8-0.2,1.5-0.5,2.1c-0.3,0.6-0.8,1.1-1.4,1.5c-0.6,0.4-1.2,0.5-2,0.5h-7.5    V78.5z"></path>
		<path class="st2" d="M95.6,101.2c-1.9,0-3.6-0.3-5.1-1c-1.6-0.7-2.9-1.6-4.1-2.8c-1.2-1.2-2.1-2.6-2.7-4.3c-0.6-1.6-1-3.4-1-5.4    c0-2,0.3-3.8,1-5.4c0.6-1.6,1.5-3.1,2.7-4.3c1.2-1.2,2.5-2.2,4.1-2.8c1.6-0.7,3.3-1,5.1-1c1.9,0,3.6,0.3,5.1,1    c1.6,0.7,2.9,1.6,4.1,2.9c1.2,1.2,2.1,2.7,2.7,4.3c0.6,1.6,1,3.4,1,5.4s-0.3,3.7-1,5.4c-0.6,1.6-1.5,3.1-2.7,4.3    c-1.2,1.2-2.5,2.2-4.1,2.9C99.2,100.9,97.5,101.2,95.6,101.2z M95.6,97.3c1.3,0,2.4-0.2,3.5-0.7c1.1-0.5,2-1.1,2.8-2    c0.8-0.9,1.4-1.9,1.8-3c0.4-1.2,0.7-2.4,0.7-3.8s-0.2-2.7-0.7-3.8c-0.4-1.2-1-2.2-1.8-3c-0.8-0.9-1.7-1.5-2.8-2    c-1.1-0.5-2.2-0.7-3.5-0.7c-1.3,0-2.4,0.2-3.5,0.7c-1.1,0.5-2,1.1-2.8,2s-1.4,1.9-1.8,3c-0.4,1.2-0.6,2.5-0.6,3.9    c0,1.9,0.4,3.5,1.1,4.9c0.8,1.4,1.8,2.6,3.1,3.4C92.4,96.9,93.9,97.3,95.6,97.3z"></path>
	</g>
	<g class="st1">
		<path class="st2" d="M122.7,101.2c-2.6,0-4.8-0.5-6.6-1.4c-1.8-0.9-3.3-2.2-4.6-3.9l3.9-4.4c1.2,1.7,2.5,2.8,3.7,3.4    s2.5,0.9,3.9,0.9c0.7,0,1.3-0.1,1.8-0.3c0.5-0.2,1-0.4,1.3-0.8c0.3-0.3,0.5-0.7,0.5-1.2c0-0.4-0.1-0.7-0.3-1    c-0.2-0.3-0.4-0.6-0.8-0.8c-0.3-0.2-0.7-0.4-1.1-0.6c-0.4-0.2-0.9-0.3-1.4-0.5s-1-0.2-1.6-0.3c-1.5-0.3-2.7-0.7-3.8-1.2    c-1.1-0.5-2-1.1-2.7-1.8c-0.7-0.7-1.2-1.5-1.6-2.4c-0.4-0.9-0.5-1.9-0.5-3c0-1.6,0.5-3,1.4-4.2c0.9-1.2,2.1-2.1,3.6-2.8    c1.5-0.7,3.1-1,4.9-1c2.6,0,4.6,0.4,6.2,1.2s2.8,1.9,3.7,3.4l-4,3.9c-0.8-1-1.7-1.8-2.7-2.3s-2-0.8-3.1-0.8    c-0.7,0-1.4,0.1-1.9,0.3c-0.6,0.2-1,0.4-1.3,0.8c-0.3,0.3-0.4,0.7-0.4,1.2c0,0.4,0.1,0.8,0.4,1.1s0.6,0.6,1,0.8s0.9,0.4,1.5,0.6    c0.6,0.2,1.1,0.3,1.7,0.4c1.4,0.3,2.6,0.6,3.7,1.1s2.1,1,2.9,1.7c0.8,0.7,1.4,1.4,1.9,2.3s0.7,1.9,0.7,3.1c0,1.8-0.4,3.3-1.3,4.6    c-0.9,1.3-2.1,2.3-3.6,2.9C126.5,100.9,124.7,101.2,122.7,101.2z"></path>
	</g>
	<polygon class="st2" points="155.1,100.9 162.6,100.9 150.7,85.6 161.9,74.6 154.3,74.6 144.6,84.4 144.6,74.6 138.2,74.6    138.2,100.9 144.6,100.9 144.6,91.5 146.6,89.6  "></polygon>
	<g class="st1">
		<path class="st2" d="M165.9,100.9v-5.4h4.4V80h-4.4v-5.4h15.3V80h-4.4v15.5h4.4v5.4H165.9z"></path>
	</g>
	<g class="st1">
		<path class="st3" d="M89.1,121.2c-0.6,0-1.2-0.1-1.7-0.3c-0.5-0.2-1-0.5-1.3-0.9c-0.4-0.4-0.7-0.9-0.9-1.4s-0.3-1.1-0.3-1.8    c0-0.7,0.1-1.2,0.3-1.8s0.5-1,0.9-1.4c0.4-0.4,0.8-0.7,1.3-0.9c0.5-0.2,1.1-0.3,1.7-0.3c0.6,0,1.2,0.1,1.7,0.3    c0.5,0.2,1,0.5,1.3,0.9s0.7,0.9,0.9,1.4c0.2,0.5,0.3,1.1,0.3,1.8c0,0.6-0.1,1.2-0.3,1.8s-0.5,1-0.9,1.4c-0.4,0.4-0.8,0.7-1.3,0.9    C90.3,121.1,89.8,121.2,89.1,121.2z M89.2,120.3c0.5,0,0.9-0.1,1.3-0.3c0.4-0.2,0.7-0.4,1-0.7s0.5-0.7,0.7-1.1s0.2-0.9,0.2-1.4    s-0.1-1-0.2-1.4s-0.4-0.8-0.7-1.1s-0.6-0.6-1-0.7c-0.4-0.2-0.8-0.3-1.3-0.3c-0.5,0-0.9,0.1-1.3,0.3s-0.7,0.4-1,0.7    c-0.3,0.3-0.5,0.7-0.7,1.1s-0.2,0.9-0.2,1.4c0,0.7,0.1,1.3,0.4,1.8s0.7,0.9,1.2,1.2C88,120.1,88.5,120.3,89.2,120.3z"></path>
	</g>
	<g class="st1">
		<path class="st3" d="M102.3,121.2c-0.7,0-1.2-0.1-1.7-0.4c-0.5-0.3-0.9-0.7-1.2-1.2c-0.3-0.5-0.4-1.1-0.4-1.8v-5.3h1v5.2    c0,0.5,0.1,0.9,0.3,1.3c0.2,0.4,0.5,0.7,0.9,0.9c0.4,0.2,0.8,0.3,1.2,0.3c0.5,0,0.9-0.1,1.3-0.3s0.7-0.5,0.9-0.9    c0.2-0.4,0.3-0.8,0.3-1.3v-5.2h0.9v5.3c0,0.7-0.1,1.2-0.4,1.8s-0.7,0.9-1.2,1.2C103.5,121,102.9,121.2,102.3,121.2z"></path>
	</g>
	<g class="st1">
		<path class="st3" d="M111.8,121.1v-8.7h1v7.7h4.2v0.9H111.8z"></path>
	</g>
	<g class="st1">
		<path class="st3" d="M125.7,121.2c-0.7,0-1.2-0.1-1.7-0.4c-0.5-0.3-0.9-0.7-1.2-1.2s-0.4-1.1-0.4-1.8v-5.3h1v5.2    c0,0.5,0.1,0.9,0.3,1.3c0.2,0.4,0.5,0.7,0.9,0.9c0.4,0.2,0.8,0.3,1.2,0.3c0.5,0,0.9-0.1,1.3-0.3c0.4-0.2,0.7-0.5,0.9-0.9    s0.3-0.8,0.3-1.3v-5.2h0.9v5.3c0,0.7-0.1,1.2-0.4,1.8s-0.7,0.9-1.2,1.2C127,121,126.4,121.2,125.7,121.2z"></path>
	</g>
	<!-- <rect fill="red" x="104.8" y="49" width="5" height="5"/> -->
	<g id="sukset_ristissa">
		<rect x="96.4" y="49.9" transform="matrix(0.7071 -0.7071 0.7071 0.7071 -2.9926 95.5147)" class="st3" width="0" height="3">
			<animate
				attributeName="x"
				to="96.4"
				dur="0.25s"
				fill="freeze"
				begin="1.25s"
			/>
			<animate
				attributeName="width"
				from="0"
				to="34.8"
				dur="0.25s"
				fill="freeze"
				begin="1.25s"
			/>
		</rect>
		<rect x="99.4" y="33.9" transform="matrix(0.7071 -0.7071 0.7071 0.7071 -6.7882 86.3517)" class="st3" width="3" height="0">
			<animate
				attributeName="y"
				from="68.7"
				to="33.9"
				dur="0.25s"
				fill="freeze"
				begin="1s"
			/>
			<animate
				attributeName="height"
				from="0"
				to="34.8"
				dur="0.25s"
				fill="freeze"
				begin="1s"
			/>
		</rect>
		<rect x="83.4" y="49.9" transform="matrix(0.7071 -0.7071 0.7071 0.7071 -6.7885 86.3507)" class="st3" width="0" height="3">
			<animate
				attributeName="x"
				to="83.4"
				dur="0.25s"
				fill="freeze"
				begin="1.25s"
			/>
			<animate
				attributeName="width"
				from="0"
				to="34.8"
				dur="0.25s"
				fill="freeze"
				begin="1.25s"
			/>
		</rect>
		<rect x="112.3" y="33.9" transform="matrix(0.7071 -0.7071 0.7071 0.7071 -2.9922 95.5159)" class="st3" width="3" height="0">
			<animate
				attributeName="y"
				from="68.7"
				to="33.9"
				dur="0.25s"
				fill="freeze"
				begin="1s"
			/>
			<animate
				attributeName="height"
				from="0"
				to="34.8"
				dur="0.25s"
				fill="freeze"
				begin="1s"
			/>
		</rect>
	</g>
</g>
</svg>
